<svg xmlns="http://www.w3.org/2000/svg" viewBox="0 0 208.9 260">
  <path fill="#92c19d" d="M124.7,26.9c-2.2-2.6-27.1,13.5-37.2,32.2-10.2,18.6-16.9,33.8-8.5,57.5,0,0,6-8.6,11.5-15.5,5.5-6.9,10-8.1,10-8.1,0,0-.4,13.4-13.1,35.1-11.7,19.9-16.9,25.2-19.1,24.8-2.2-.4-5.1-24.2-7.5-24.5-2.4-.4-28,30-29.7,62.4-1,19.6,9.6,42.2,24.3,51.4s47.9,8.5,47.9,8.5c0,0-28.8-16.9-29.6-37.3-.4-10.7,5.3-15.1,10-16.9,13.4-5.2,21.7,11.7,21.7,11.7,0,0,7.9-14.4,22.2-12.1s11.9,6.4,11.5,16.9c-.8,20.7-30,37.6-30,37.6,0,0,24.6,2.9,45.9-8.5,8.6-4.6,17.4-14.5,22.1-23.5,18.3-35.4,4.5-70.1-5.3-88.6-9.8-18.5-4.9-29.1-8.8-29.8-3.9-.8-10,11.4-11,22.4s1,26.5-7.5,35.5c-8.4,9-12,10.2-12,10.2,0,0-3.1-2-3.1-7.3s-.2-8.2-2.7-12.2,12.6-20.2,12-34.4c-1.4-29.5-15.3-38.3-15.9-57.7-.5-17.6,4.1-27.4,1.8-30Z"/>
</svg>
